<?xml version="1.0" encoding="UTF-8" standalone="no"?>
<!-- Created with Inkscape (http://www.inkscape.org/) -->

<svg
   width="442.69308"
   height="803.16382"
   viewBox="0 0 117.12921 212.50376"
   version="1.1"
   id="svg6349"
   xmlns="http://www.w3.org/2000/svg"
   xmlns:svg="http://www.w3.org/2000/svg">
  <defs
     id="defs6346">
    <mask
       maskUnits="userSpaceOnUse"
       id="mask2058">
      <path
         d="m 176.12488,-314.02208 h 231.5716 m -231.5716,66.97266 h 231.5716 m -231.5716,-4.46485 h 231.5716 m -231.5716,-4.46484 h 231.5716 m -231.5716,-4.46484 h 231.5716 m -231.5716,-4.46485 h 231.5716 m -231.5716,-4.46484 h 231.5716 m -231.5716,-4.46484 h 231.5716 m -231.5716,-4.46485 h 231.5716 m -231.5716,-4.46484 h 231.5716 m -231.5716,-4.46485 h 231.5716 m -231.5716,-4.46484 h 231.5716 m -231.5716,49.11328 h 231.5716 m -231.5716,-53.57812 h 231.5716 m -231.5716,-4.46485 h 231.5716 m -231.5716,-4.46484 h 231.5716 m -231.5716,-4.46484 h 231.5716 m -231.5716,151.80468 h 231.5716 m -231.5716,-4.46484 h 231.5716 m -231.5716,-4.46484 h 231.5716 m -231.5716,-4.46485 h 231.5716 m -231.5716,-4.46484 h 231.5716 m -231.5716,-4.46484 h 231.5716 m -231.5716,-4.46485 h 231.5716 m -231.5716,-4.46484 h 231.5716 m -231.5716,-4.46485 h 231.5716 m -231.5716,-4.46484 h 231.5716 m -231.5716,-4.46484 h 231.5716 m -231.5716,49.11328 h 231.5716 m -231.5716,-58.04297 h 231.5716 m -231.5716,-4.46485 h 231.5716 m -231.5716,-4.46484 h 231.5716 m -231.5716,-4.46484 h 231.5716 m -231.5716,-4.46485 h 231.5716 m -231.5716,-4.46484 h 231.5716 m -231.5716,-4.46485 h 231.5716 m -231.5716,-80.36718 h 231.5716 m -231.5716,-4.46484 h 231.5716 m -231.5716,-4.46485 h 231.5716 m -231.5716,120.55078 h 231.5716 m -231.5716,107.156251 h 231.5716 m -231.5716,49.113282 h 231.5716 m -231.5716,-4.464844 h 231.5716 m -231.5716,-4.464843 h 231.5716 m -231.5716,-4.464844 h 231.5716 m -231.5716,-4.464844 h 231.5716 m -231.5716,-4.464844 h 231.5716 m -231.5716,-4.464844 h 231.5716 m -231.5716,-4.464843 h 231.5716 m -231.5716,-4.464843 h 231.5716 m -231.5716,-4.464847 h 231.5716 m -231.5716,-4.464839 h 231.5716 m -231.5716,49.113279 h 231.5716 m -231.5716,-58.042977 h 231.5716 m -231.5716,-4.46483 h 231.5716 m -231.5716,-4.46485 h 231.5716 m -231.5716,-4.46484 h 231.5716 m -231.5716,-4.46485 h 231.5716 m -231.5716,-4.46484 h 231.5716 m -231.5716,-4.46484 h 231.5716 m -231.5716,-4.46485 h 231.5716 m -231.5716,-4.46485 h 231.5716 m -231.5716,-4.46483 h 231.5716 m -231.5716,-4.46485 h 231.5716 m -231.5716,107.156253 h 231.5716"
         style="fill:none;stroke:#ffffff;stroke-width:0.264583px;stroke-linecap:butt;stroke-linejoin:miter;stroke-opacity:1"
         id="path2060"
         transform="matrix(3.7795276,0,0,3.7795276,-129.23966,0.01410096)" />
    </mask>
  </defs>
  <g
     id="layer1"
     transform="translate(686.93616,26.531591)">
    <g
       id="g1119"
       transform="matrix(0.93312952,0,0,0.93312952,-391.35449,601.43318)"
       style="stroke:#fff5f1;stroke-width:0.567088;stroke-miterlimit:4;stroke-dasharray:none;stroke-opacity:1">
      <path
         id="path1103"
         d="m -316.47256,-462.60752 1.20194,-40.35081 37.43185,-5.66628 2.33948,-10.38819 c 0,0 -4.14596,-3.707 -6.30106,-4.55689 -2.30441,-0.90878 -4.86098,-3.09534 -5.1601,-4.91728 -0.33389,-2.03369 1.03202,-9.65243 0.66777,-11.1094 -0.36424,-1.45697 -0.52673,-2.23003 1.33556,-3.27819 1.86229,-1.04817 6.62791,-4.36597 7.39801,-7.84505 0.7701,-3.47908 3.42785,-10.81014 0.94923,-14.67729 -2.47864,-3.86716 -13.31311,-16.20713 -13.65911,-18.45495 -0.34602,-2.24783 0.091,-6.7385 -1.06238,-9.83456 -1.15344,-3.09606 1.42791,-3.79306 -1.15344,-5.58505 -2.58135,-1.792 -2.02952,-6.27939 -0.39459,-10.38092 0.44495,-1.11626 0.92359,-2.31388 0.40666,-5.64242 -0.48755,-3.13928 0.64168,-7.57387 -0.71019,-9.20048 -1.71021,-2.05776 -4.5282,-2.50198 -4.88693,-5.03869 -0.42495,-3.00501 0.46194,-5.17679 2.00333,-7.74017 1.86016,-3.09349 4.00668,-1.54803 4.79587,-4.88692 0.78919,-3.33889 1.94262,-6.52602 4.31021,-8.40794 2.36757,-1.88192 5.1601,-3.94596 3.82453,-7.46698 -1.33554,-3.52101 0.42496,-5.28152 2.12476,-6.61708 1.6998,-1.33555 7.95263,-4.18879 10.1988,-5.70647 2.24615,-1.51767 6.37424,-2.79253 9.3489,-2.00334 2.97464,0.7892 4.24948,2.00334 6.43494,0.48567 2.18545,-1.51769 6.01001,-0.60708 8.07405,0.42495 2.06404,1.03202 3.94596,0.66777 5.94929,2.06404 2.00334,1.39625 2.54971,1.8212 6.92062,1.27484 4.37092,-0.54636 12.50566,4.91728 16.69445,8.19547 4.18879,3.27819 2.00333,4.85657 5.9493,7.28486 3.94596,2.42828 -3.88526,3.88526 5.88859,8.4383 9.77385,4.55303 13.23415,7.95262 13.96264,12.93061 0.72848,4.97798 -4.97799,-0.24283 -2.73182,5.22082 2.24617,5.46365 -5.94931,6.98132 -2.73183,11.8986 3.21748,4.91728 2.73183,10.56303 2.48899,15.05537 -0.24283,4.49233 -0.60707,4.97798 -2.30686,6.61707 -1.69981,1.6391 1.51768,1.94263 1.7605,3.82456 0.24283,1.88191 -2.36758,5.88858 -2.36758,9.10605 0,3.21748 -0.24283,6.43497 -3.21748,9.53103 -2.97464,3.09606 -0.97131,2.42828 -1.76049,4.3102 -0.7892,1.88192 -5.0387,3.88525 -5.22082,7.10273 -0.18212,3.21748 -0.30354,7.22415 -3.33889,8.13476 -3.03536,0.9106 -6.28319,-1.5784 -6.28319,-1.5784 0,0 -3.7942,12.93063 -5.25116,17.48366 -1.45697,4.55303 -4.43772,14.33856 -1.51768,17.30153 2.92004,2.96297 6.49566,4.61374 5.40294,6.25283 -1.09274,1.63908 -3.03536,4.00666 2.48899,4.73515 5.52434,0.72848 12.32353,1.82121 12.32353,1.82121 l -0.12141,36.12072 -53.60367,22.71757 z"
         style="fill:none;stroke:#fff5f1;stroke-width:0.567088;stroke-linecap:butt;stroke-linejoin:miter;stroke-miterlimit:4;stroke-dasharray:none;stroke-opacity:1" />
      <path
         style="fill:#ffffff;stroke:#fff5f1;stroke-width:2.62345;stroke-linecap:butt;stroke-linejoin:miter;stroke-miterlimit:4;stroke-dasharray:none;stroke-opacity:1"
         mask="url(#mask2058)"
         d="m 948.98047,-1222.7207 c -5.09464,0.036 -9.95279,1.0897 -13.74414,3.7227 -10.11031,7.021 -16.0064,1.4029 -29.76758,-2.2481 -13.76126,-3.6509 -32.85891,2.2485 -43.25,9.2695 -10.39117,7.0211 -39.31811,20.22 -47.18164,26.3985 -7.86357,6.1785 -16.00855,14.3225 -9.83008,30.6113 6.17855,16.2888 -6.73864,25.8369 -17.69141,34.543 -10.9528,8.706 -16.29045,23.4502 -19.9414,38.8965 -3.65091,15.4462 -13.58013,8.2983 -22.18555,22.6093 -7.13076,11.8587 -11.2335,21.905 -9.26758,35.8067 1.65952,11.7353 14.6957,13.791 22.60743,23.31052 6.25398,7.52496 1.02968,28.03966 3.28515,42.5625 2.39138,15.3984 0.17759,20.93752 -1.88086,26.10156 -7.56344,18.97436 -10.11558,39.7353 1.82617,48.02539 11.94176,8.29006 -3e-5,11.51304 5.33594,25.83594 5.33594,14.3229 3.31336,35.09921 4.91406,45.49805 1.60067,10.3988 51.72286,67.48483 63.18946,85.375 11.46655,17.89009 -0.82801,51.80557 -4.39063,67.90039 -3.55919,16.07931 -25.56446,31.41089 -34.19726,36.27539 0.12249,-0.0286 11.60876,-2.5979 39.26172,35.32617 27.80186,38.12833 44.48289,58.78069 69.10742,59.17773 24.62453,0.39701 27.00814,0.79332 38.1289,-10.72461 11.12073,-11.51795 30.18551,-10.32477 38.12891,11.51954 7.94336,21.84434 5.94197,35.32172 0.79297,44.8789 -5.149,9.55718 -0.89258,30.08594 -0.89258,30.08594 0,0 -9.7301,-4.17007 -29.78711,-17.67383 -20.05708,-13.50383 -24.12954,-1.68776 -39.61914,-7.24805 -15.48964,-5.56029 -32.96557,-14.6963 -47.26367,-25.41992 -14.29814,-10.72358 -24.12695,-9.53125 -24.12695,-9.53125 0,0 -19.18053,-17.15026 -29.1504,-21.08203 -10.66056,-4.20412 -22.48729,-14.31943 -23.87109,-22.74805 -1.54462,-9.40818 4.7749,-44.65239 3.08985,-51.39257 -0.73722,-2.94883 -1.29703,-5.29318 -0.97071,-7.40235 -0.33125,2.11294 0.22599,4.46063 0.96485,7.41602 1.68506,6.74018 -4.63247,41.98634 -3.0879,51.39453 1.3838,8.42861 13.21053,18.54389 23.8711,22.74805 9.96986,3.93176 29.14844,21.08007 29.14844,21.08007 l -10.82227,48.0586 -173.11523,26.20508 271.60351,49.0664 -4.75195,216.23633 -272.45703,-78.64062 5.56054,-186.6543 h -0.006 l -5.56055,186.66992 272.45898,78.63867 247.98054,-105.0957 0.5605,-167.09961 c 0,0 -31.4532,-5.05569 -57.0097,-8.42578 -25.5566,-3.37009 -16.5709,-14.32357 -11.5157,-21.90625 5.0552,-7.58272 -11.4855,-15.21857 -24.9941,-28.92578 -13.5086,-13.70718 0.2813,-58.97595 7.0215,-80.03907 6.7402,-21.06304 24.291,-80.88281 24.291,-80.88281 0,0 15.0263,11.51337 29.0684,7.30078 14.042,-4.21262 14.6028,-22.7482 15.4453,-37.63281 0.8425,-14.88457 20.5013,-24.15135 24.1523,-32.85742 3.6509,-8.70607 -5.6167,-5.61656 8.1445,-19.93945 13.7613,-14.3229 14.8848,-29.20719 14.8848,-44.0918 0,-14.88457 12.0765,-33.42089 10.9531,-42.12695 -1.1233,-8.70611 -16.0081,-10.11065 -8.1445,-17.69336 7.8635,-7.58272 9.5485,-9.82903 10.6719,-30.61133 1.1234,-20.7823 3.3709,-46.90026 -11.5137,-69.64844 -14.8846,-22.74814 23.0279,-29.76914 12.6367,-55.04493 -10.3911,-25.2758 16.0088,-1.1233 12.6387,-24.1523 -3.3701,-23.029 -19.3783,-38.7572 -64.5938,-59.8203 -45.2154,-21.0632 -8.9874,-27.8035 -27.2421,-39.0372 -18.2547,-11.2336 -8.1435,-18.5337 -27.5215,-33.6992 -19.3781,-15.1654 -57.0119,-40.4416 -77.2324,-37.914 -20.2206,2.5275 -22.7479,0.5609 -32.0157,-5.8985 -9.26764,-6.4593 -17.97287,-4.7745 -27.52151,-9.5488 -5.96787,-2.984 -15.11831,-5.7478 -23.60937,-5.6875 z m 26.20898,245.16601 c 3.5626,0.31683 -4.77659,54.88435 -0.69531,61.00586 4.14584,6.21895 21.93867,21.59359 17.44727,27.8125 -4.49133,6.21872 -14.51197,-2.41983 -17.9668,7.25391 -3.45483,9.6737 -6.56445,10.36523 -6.56445,10.36523 -13.4741,1.38199 -21.4192,-7.94569 -20.38282,-17.96484 1.03658,-10.01923 7.42668,-22.45733 11.91797,-27.8125 3.56965,-6.24578 9.66759,-58.31226 16.06641,-60.63281 0.0626,-0.0227 0.12118,-0.0324 0.17773,-0.0274 z m 44.88865,125.17774 c 12.2577,-0.13928 43.1568,49.01747 19.7481,28.8457 -23.4487,-20.20592 -63.81613,-12.61433 -88.293,4.67969 -24.47694,17.29406 -6.05056,-39.22619 28.64063,-33.05078 7.52549,1.17641 20.52907,4.54107 38.77737,-0.30274 0.3541,-0.11106 0.7315,-0.16738 1.1269,-0.17187 z m -14.0156,35.01562 c 7.2657,0.0261 14.4759,0.85242 16.502,3.41602 4.0831,5.16669 2.8459,12.27548 -7.9063,8.57226 -10.7522,-3.70318 -25.81006,-1.11355 -34.5625,4.35743 -12.09936,7.563 -23.19583,-0.42685 -18.80859,-9.59961 4.38709,-9.17254 22.58323,-4.63314 30.13477,-5.79493 3.30377,-0.50828 8.98952,-0.97147 14.64062,-0.95117 z"
         transform="matrix(0.21616156,0,0,0.21616156,-457.19206,-408.37354)"
         id="path1105" />
      <g
         id="g1117"
         transform="matrix(0.8169886,0,0,0.8169886,-46.484872,-408.37354)"
         style="fill:none;stroke:#fff5f1;stroke-width:0.69412;stroke-miterlimit:4;stroke-dasharray:none;stroke-opacity:1">
        <path
           style="fill:none;stroke:#fff5f1;stroke-width:0.69412;stroke-linecap:butt;stroke-linejoin:miter;stroke-miterlimit:4;stroke-dasharray:none;stroke-opacity:1"
           d="m -330.46701,-66.382827 1.47118,-49.389703 71.87405,12.98384 -1.25728,57.212592 z"
           id="path1107" />
        <path
           style="fill:none;stroke:#fff5f1;stroke-width:0.69412;stroke-linecap:butt;stroke-linejoin:miter;stroke-miterlimit:4;stroke-dasharray:none;stroke-opacity:1"
           d="m -280.31543,-135.42333 c 0,0 -5.0747,-4.53739 -7.71256,-5.57767 -2.82061,-1.11234 -5.94988,-3.78871 -6.31601,-6.01878 -0.40868,-2.48925 1.2632,-11.81465 0.81736,-13.59799 -0.44584,-1.78334 -0.64472,-2.72956 1.63473,-4.01253 0,0 3.03837,-0.7421 10.39428,9.34601 7.35591,10.08812 11.76945,15.55253 18.28469,15.65758 6.51524,0.10504 7.14575,0.21017 10.08812,-2.83728 2.94236,-3.04746 7.98642,-2.73219 10.08811,3.04745 2.10168,5.77965 1.57251,9.34588 0.21017,11.87455 -1.36234,2.52867 -0.23643,7.96015 -0.23643,7.96015 0,0 -2.57459,-1.10339 -7.88134,-4.67626 -5.30677,-3.57289 -6.38389,-0.44663 -10.48218,-1.91779 -4.0983,-1.47116 -8.72202,-3.88812 -12.50506,-6.72541 -3.78305,-2.83728 -6.38388,-2.52203 -6.38388,-2.52203 z"
           id="path1109" />
        <path
           id="path1111"
           d="m -250.94871,-216.65426 c 6.47617,-4.57571 17.15679,-6.58454 23.36091,-1.23839 6.39335,5.50928 -2.52443,-8.52692 -5.523,-7.58656 -4.82818,1.28159 -8.26885,0.39126 -10.25997,0.08 -9.17871,-1.63391 -14.05413,13.3207 -7.57794,8.74498 z"
           style="fill:none;fill-opacity:1;stroke:#fff5f1;stroke-width:0.69412;stroke-linecap:butt;stroke-linejoin:miter;stroke-miterlimit:4;stroke-dasharray:none;stroke-opacity:1" />
        <path
           id="path1113"
           d="m -234.24691,-213.08826 c -2.84486,-0.9798 -6.82896,-0.29483 -9.14471,1.1527 -3.20129,2.00105 -6.13719,-0.11285 -4.9764,-2.53981 1.16075,-2.4269 5.97539,-1.22568 7.9734,-1.53307 1.99801,-0.30739 7.28663,-0.55377 8.23961,0.65207 1.08032,1.36702 0.75294,3.24792 -2.0919,2.26811 z"
           style="fill:none;fill-opacity:1;stroke:#fff5f1;stroke-width:0.69412;stroke-linecap:butt;stroke-linejoin:miter;stroke-miterlimit:4;stroke-dasharray:none;stroke-opacity:1" />
        <path
           id="path1115"
           d="m -246.74777,-230.48308 c -3.56502,0.36565 -5.66744,-2.10243 -5.39323,-4.75333 0.27426,-2.65092 1.96534,-5.94168 3.15366,-7.35857 0.94447,-1.65253 2.55759,-15.42859 4.25061,-16.04257 1.06078,-0.3847 -1.23403,14.48861 -0.13705,16.13397 1.09692,1.64543 5.80456,5.71317 4.61621,7.35859 -1.18833,1.64537 -3.83925,-0.63991 -4.75334,1.9196 -0.91409,2.5595 -1.73679,2.74231 -1.73679,2.74231 z"
           style="fill:none;fill-opacity:1;stroke:#fff5f1;stroke-width:0.69412;stroke-linecap:butt;stroke-linejoin:miter;stroke-miterlimit:4;stroke-dasharray:none;stroke-opacity:1" />
      </g>
    </g>
  </g>
</svg>
