<?xml version="1.0" encoding="UTF-8" standalone="no"?>
<!-- Created with Inkscape (http://www.inkscape.org/) -->

<svg
   width="458.57349"
   height="833.38757"
   viewBox="0 0 121.3309 220.50046"
   version="1.1"
   id="svg6349"
   inkscape:version="1.2.2 (732a01da63, 2022-12-09)"
   sodipodi:docname="graphics.svg"
   xmlns:inkscape="http://www.inkscape.org/namespaces/inkscape"
   xmlns:sodipodi="http://sodipodi.sourceforge.net/DTD/sodipodi-0.dtd"
   xmlns="http://www.w3.org/2000/svg"
   xmlns:svg="http://www.w3.org/2000/svg">
  <sodipodi:namedview
     id="namedview6351"
     pagecolor="#0d0d0d"
     bordercolor="#eeeeee"
     borderopacity="1"
     inkscape:showpageshadow="0"
     inkscape:pageopacity="0"
     inkscape:pagecheckerboard="0"
     inkscape:deskcolor="#0d0d0d"
     inkscape:document-units="px"
     showgrid="false"
     showborder="false"
     inkscape:zoom="0.52724989"
     inkscape:cx="-749.17038"
     inkscape:cy="-1682.3143"
     inkscape:window-width="1920"
     inkscape:window-height="1017"
     inkscape:window-x="-8"
     inkscape:window-y="-8"
     inkscape:window-maximized="1"
     inkscape:current-layer="layer1" />
  <defs
     id="defs6346" />
  <g
     inkscape:label="Layer 1"
     inkscape:groupmode="layer"
     id="layer1"
     transform="translate(278.56146,592.74035)">
    <g
       id="g2621"
       inkscape:export-filename="logo.svg"
       inkscape:export-xdpi="119.52731"
       inkscape:export-ydpi="119.52731">
      <path
         sodipodi:nodetypes="ccccsszzzzzszssssssccccssssszssszzzssssccccszcscccc"
         inkscape:connector-curvature="0"
         id="path1090"
         d="m -278.56144,-388.74671 1.16709,-39.18283 36.34838,-5.50226 2.27171,-10.0875 c 0,0 -4.02599,-3.59969 -6.11855,-4.42499 -2.2378,-0.88247 -4.72038,-3.00573 -5.01074,-4.77493 -0.32426,-1.97483 1.00217,-9.37304 0.64843,-10.78783 -0.35374,-1.41481 -0.51144,-2.16548 1.29685,-3.1833 1.80839,-1.01783 6.43611,-4.2396 7.1839,-7.61797 0.74779,-3.37838 3.3286,-10.49722 0.92167,-14.25243 -2.40694,-3.75523 -12.92769,-15.738 -13.2637,-17.92077 -0.33601,-2.18276 0.0886,-6.54344 -1.03154,-9.54988 -1.12008,-3.00644 1.38652,-3.68326 -1.12008,-5.42339 -2.50661,-1.74012 -1.97074,-6.09763 -0.38312,-10.08044 0.43197,-1.08394 0.89683,-2.24689 0.39476,-5.47908 -0.47341,-3.04841 0.62318,-7.35463 -0.68965,-8.93416 -1.66069,-1.99819 -4.39705,-2.42955 -4.74543,-4.89284 -0.41259,-2.91802 0.44857,-5.02694 1.94538,-7.51611 1.80633,-3.00394 3.89065,-1.50322 4.65699,-4.74547 0.76634,-3.24224 1.88642,-6.33711 4.18554,-8.16455 2.29902,-1.82745 5.01074,-3.83175 3.71378,-7.25084 -1.29685,-3.41909 0.4127,-5.12864 2.0633,-6.42554 1.65049,-1.29689 7.72245,-4.06754 9.90355,-5.54129 2.1811,-1.47374 6.18967,-2.71169 9.07826,-1.94534 2.88848,0.76635 4.12648,1.94534 6.24863,0.4716 2.12225,-1.47375 5.83603,-0.5895 7.84036,0.41265 2.00434,1.00215 3.8317,0.64844 5.77708,2.00429 1.94527,1.35585 2.47588,1.7685 6.72028,1.23795 4.2444,-0.53055 12.14372,4.77494 16.21114,7.95823 4.06763,3.1833 1.94548,4.716 5.77718,7.07399 3.83169,2.358 -3.77285,3.77279 5.71811,8.19403 9.49096,4.42124 12.8511,7.72244 13.55848,12.55633 0.70739,4.83389 -4.83386,-0.2358 -2.65276,5.06969 2.18121,5.30549 -5.77707,6.77924 -2.65276,11.55417 3.12432,4.77494 2.65276,10.25728 2.41704,14.61958 -0.23583,4.3623 -0.58957,4.83388 -2.24016,6.42554 -1.6506,1.59164 1.47372,1.8864 1.70955,3.71384 0.23572,1.82744 -2.29902,5.71814 -2.29902,8.84248 0,3.12435 -0.23583,6.24869 -3.12442,9.25513 -2.88848,3.00644 -0.94321,2.358 -1.70955,4.18544 -0.76634,1.82744 -4.89282,3.77279 -5.06959,6.89714 -0.17697,3.12434 -0.29489,7.01503 -3.24222,7.89929 -2.94755,0.88424 -6.10134,-1.5327 -6.10134,-1.5327 0,0 -3.68441,12.55632 -5.09928,16.97756 -1.41476,4.42124 -4.30912,13.92352 -1.47372,16.80072 2.83561,2.87721 6.30769,4.48019 5.24657,6.07184 -1.06103,1.59164 -2.94745,3.89069 2.41703,4.59808 5.36437,0.70741 11.96674,1.76851 11.96674,1.76851 l -0.11791,35.07518 -52.052,22.05999 z"
         style="fill:#00e5c6;fill-opacity:1;stroke:none;stroke-width:0.2358;stroke-linecap:butt;stroke-linejoin:miter;stroke-miterlimit:4;stroke-dasharray:none;stroke-opacity:1" />
      <g
         id="g1132"
         style="fill:#009984;fill-opacity:1;stroke:none"
         transform="matrix(0.89121084,0,0,0.89121084,112.81523,-618.25513)">
        <path
           style="fill:#009984;fill-opacity:1;stroke:none;stroke-width:0.264583;stroke-linecap:butt;stroke-linejoin:miter;stroke-miterlimit:4;stroke-dasharray:none;stroke-opacity:1"
           d="m -326.9879,137.16207 c -0.60396,1.04666 -1.17673,1.76151 -12.24699,5.21068 -16.06628,5.0058 -32.69506,-4.05492 -24.21403,-13.04829 1.26174,-1.33796 4.79214,-2.01415 5.8679,-1.87384 1.07576,0.14032 4.72381,0.98229 4.16254,-0.65474 -0.56126,-1.63702 -2.99319,-2.10486 -4.63021,-1.45004 -1.63703,0.6548 -2.6658,0.46772 -4.44314,0 -1.77734,-0.46773 -2.19867,-0.0937 -3.78892,1.12241 -1.59026,1.21608 -3.77366,-0.89178 -1.96422,-2.05776 2.33394,-1.50396 4.71251,-3.1651 6.77065,-3.1259 2.7525,0.0524 3.93847,-0.48631 6.41925,-0.99013 2.07678,-0.42177 4.44338,1.49668 6.96908,2.66599 2.52569,1.1693 2.71241,-1.54338 1.07538,-3.41426 -1.63703,-1.87089 -3.39949,-2.93051 -5.8446,-2.76107 -3.63555,0.25193 -4.45033,-0.30191 -7.63416,-0.37621 -2.98518,-0.0697 -7.07886,2.28769 -8.24187,3.48454 -1.56282,1.60832 -2.01525,1.99028 -1.29605,3.2365 1.41773,2.45662 -1.27772,4.26555 -2.43499,3.46697 -1.34076,-0.92519 -1.46082,-3.40708 -2.37505,-5.89214 -1.06324,-2.89013 -2.26387,-5.82641 -0.93689,-8.30286 2.97885,-5.55918 6.86845,1.02239 8.4,0.58033 2.9466,-0.85049 3.80338,-3.73724 7.11068,-2.67891 3.30729,1.05833 3.73724,-1.42213 2.14974,-2.87734 -1.5875,-1.45521 -5.15938,-4.49792 -4.23334,-12.700001 0.60227,-5.293555 1.67728,-13.698248 -6.48229,-15.346349 -5.38708,-1.088104 -2.08942,-3.96871 1.56838,-6.955647 2.72095,-2.221912 1.60672,-5.588677 -1.4857,-5.262729 -3.54998,0.374177 -11.43383,3.099986 -15.40061,7.202662 -7.18673,7.432929 -8.25889,20.087534 -7.57731,29.654004 0.71191,9.99227 -0.24373,15.60585 -1.02888,1.77767 -0.50936,-8.970906 0.47071,-24.185017 7.01559,-32.460551 3.61287,-4.568219 6.73541,-10.29 2.90009,-13.376963 -3.83533,-3.086965 -5.65969,-3.741698 -7.29672,-3.133659 -1.63702,0.608037 -3.21059,1.940193 -4.16253,-0.420645 -1.16931,-2.899875 -2.12748,-4.041195 -5.70612,-3.975986 -2.09825,0.03824 -3.30068,-0.499846 -4.53512,-0.506428 -0.74066,-0.0039 -1.49274,0.183335 -2.45721,0.801502 -2.57969,2.050518 -3.83646,5.523177 -4.69636,9.161198 -0.85989,3.63802 -3.19871,1.954109 -5.22552,5.324739 -1.67948,2.793019 -2.64583,5.159375 -2.18281,8.433594 0.39086,2.763978 3.46133,3.247993 5.32474,5.490104 1.47298,1.772335 0.24238,6.604188 0.77359,10.02471 0.56325,3.626745 0.042,4.931683 -0.44286,6.147946 -1.7814,4.468979 -2.38266,9.358399 0.42994,11.310939 2.81261,1.95254 0,2.71199 1.25678,6.08541 1.25677,3.37345 0.78054,8.26642 1.15755,10.71563 0.377,2.44921 12.18211,15.89471 14.88281,20.10833 0,0 0.4571,0.90562 2.34818,2.91042 1.89108,2.0048 4.5865,5.10112 14.65698,6.08438 16.12892,1.5748 25.97995,-0.10337 37.46852,-5.49475 9.31849,-4.373 12.52571,-7.98578 13.69027,-10.02565 0,0 -1.58816,8.24594 -2.18348,11.42094 -0.59531,3.175 -1.35599,9.65729 -1.35599,9.65729 0.6654,0.44581 0.59954,0.0556 0.71028,-1.14956 0.19314,-2.10186 1.54348,-9.02703 2.12813,-12.16076 0.58465,-3.13374 0.95883,-4.98124 1.26285,-6.92228 0.30402,-1.94105 0.57295,-2.04629 1.23946,-3.55469 1.03263,-2.337 1.40317,-2.64262 2.40877,-7.17952 1.0056,-4.5369 0.72497,-6.12716 2.05797,-6.10377 1.33301,0.0234 3.75244,-0.46718 4.84385,-1.294 0.60196,-0.45603 1.29141,-1.97968 1.62412,-1.41669 0.54204,0.91722 1.18905,0.2276 0.76658,-0.3448 -0.21772,-0.29499 0.14019,-0.61319 0.27167,-0.85126 0.39034,-0.7068 0.16821,-1.91421 -1.67019,0.0993 -1.89459,2.07501 -2.05052,2.87734 -4.29948,2.84427 -2.24895,-0.0331 -2.99486,-1.01582 -3.86953,3.70417 -0.72857,3.93159 -1.39131,7.98603 -3.36915,11.41359 z m -48.81681,-54.044148 c 4.8771,0.104471 6.30231,3.576394 5.78672,4.113445 -0.54939,0.572259 -2.70673,-2.489623 -6.63525,-2.251025 -3.92853,0.238596 -7.67944,4.158081 -7.81555,4.077269 -0.1361,-0.08081 1.97401,-5.52687 7.66,-5.914885 0.17769,-0.01212 0.35155,-0.02032 0.52142,-0.02429 0.16456,-0.0038 0.32533,-0.0039 0.48266,-5.29e-4 z m -0.5364,3.047359 c 1.91928,0.01664 3.86225,0.717884 5.18417,2.415874 1.77421,2.278957 -2.53909,5.142986 -7.50755,4.630208 -3.06906,-0.316743 -4.52101,-3.823271 -2.7187,-5.353161 1.22697,-1.041508 3.12279,-1.709573 5.04208,-1.692921 z"
           id="path1092"
           inkscape:connector-curvature="0"
           sodipodi:nodetypes="ssscccccscccccccsccccsscsssssssssscccssssscscscssscscsssssssssssssscsscccccccccc" />
        <path
           inkscape:connector-curvature="0"
           id="path1094"
           d="m -439.15163,257.52428 1.30962,-43.96584 63.981,11.55799 -1.11921,50.92963 z"
           style="fill:#009984;fill-opacity:1;stroke:none;stroke-width:0.264583;stroke-linecap:butt;stroke-linejoin:miter;stroke-miterlimit:4;stroke-dasharray:none;stroke-opacity:1"
           sodipodi:nodetypes="ccccc" />
        <path
           sodipodi:nodetypes="csszczzzczczzzc"
           inkscape:connector-curvature="0"
           id="path1096"
           d="m -394.5076,196.06565 c 0,0 -4.5174,-4.0391 -6.86558,-4.96514 -2.51085,-0.99019 -5.29647,-3.37264 -5.62239,-5.35781 -0.3638,-2.21589 1.12448,-10.51719 0.7276,-12.10469 -0.39688,-1.5875 -0.57392,-2.42981 1.45521,-3.57188 0,0 2.70469,-0.66061 9.25279,8.31965 6.5481,8.98026 10.47696,13.84458 16.27671,13.9381 5.79975,0.0935 6.36102,0.18709 8.98026,-2.5257 2.61924,-2.71279 7.10937,-2.43215 8.98026,2.71279 1.87088,5.14494 1.39982,8.31953 0.18709,10.57051 -1.21273,2.25098 -0.21047,7.08598 -0.21047,7.08598 0,0 -2.29185,-0.98221 -7.01583,-4.16272 -4.72399,-3.18052 -5.68282,-0.39758 -9.33105,-1.70718 -3.64823,-1.3096 -7.76418,-3.46114 -11.13178,-5.98684 -3.3676,-2.5257 -5.68282,-2.24507 -5.68282,-2.24507 z"
           style="fill:#009984;fill-opacity:1;stroke:none;stroke-width:0.264583;stroke-linecap:butt;stroke-linejoin:miter;stroke-miterlimit:4;stroke-dasharray:none;stroke-opacity:1" />
        <path
           style="fill:#009984;fill-opacity:1;stroke:none;stroke-width:0.264583px;stroke-linecap:butt;stroke-linejoin:miter;stroke-opacity:1"
           d="m -340.6017,83.33338 c 4.71735,1.428366 5.33106,5.249833 6.07941,4.922427 0.74836,-0.327406 -1.43664,-5.744372 -6.33832,-6.489982 -4.69327,-0.713908 -8.44169,3.730425 -7.7401,4.291691 0.70158,0.561266 4.38355,-3.81886 7.99901,-2.724136 z"
           id="path1098"
           inkscape:connector-curvature="0"
           sodipodi:nodetypes="szszs" />
        <path
           style="fill:#009984;fill-opacity:1;stroke:none;stroke-width:0.264583px;stroke-linecap:butt;stroke-linejoin:miter;stroke-opacity:1"
           d="m -344.64846,59.373994 c 3.49171,4.91115 5.7062,5.940063 1.89427,0.678196 -4.14788,-5.725609 -7.69403,-9.0738 -11.66966,-7.202913 -4.66983,2.197569 -4.54428,5.470093 -1.80073,2.782942 1.0003,-0.979731 3.42291,-1.345676 5.82631,-0.654668 2.40341,0.691009 4.53343,2.685588 5.74981,4.396443 z"
           id="path1100"
           inkscape:connector-curvature="0"
           sodipodi:nodetypes="sssszs" />
        <path
           style="fill:#009984;fill-opacity:1;stroke:none;stroke-width:0.264583px;stroke-linecap:butt;stroke-linejoin:miter;stroke-opacity:1"
           d="m -317.59077,70.342066 c 1.42762,4.580801 3.15142,2.630965 1.63703,-1.169305 -1.23946,-3.110349 -3.64823,-3.788542 -6.36102,-2.712784 -2.71278,1.075762 -5.72959,2.6894 -7.78756,2.361994 -3.06189,-0.48712 -3.7577,1.680593 0.53788,0.865286 3.96785,-0.753104 3.64823,-1.6838 5.28526,-0.04677 1.63702,1.637023 2.43215,1.73057 3.27405,6.26747 0.8419,4.5369 0.42095,7.717406 3.41437,9.307661 2.99341,1.590252 7.31318,2.758206 3.50791,0.280633 -7.74692,-5.043939 -4.30304,-8.746397 -6.08038,-12.160763 -1.77735,-3.41437 -5.70814,-5.418588 -3.22728,-5.519116 1.64436,-0.06663 5.29666,0.91147 5.79974,2.525694 z"
           id="path1102"
           inkscape:connector-curvature="0"
           sodipodi:nodetypes="ssssssssssss" />
        <path
           style="fill:#009984;fill-opacity:1;stroke:none;stroke-width:0.264583px;stroke-linecap:butt;stroke-linejoin:miter;stroke-opacity:1"
           d="m -314.88916,76.397617 c 0.84357,-1.104069 1.64213,-0.751561 0.82848,0.171387 -0.75099,0.85187 -0.16537,0.926044 -0.0331,1.819011 0.13228,0.89297 -0.27662,1.050149 -0.58528,0.247563 -0.35255,-0.916693 -0.58333,-1.749468 -0.2101,-2.237961 z"
           id="path1104"
           inkscape:connector-curvature="0"
           sodipodi:nodetypes="sssss" />
        <path
           style="fill:#009984;fill-opacity:1;stroke:none;stroke-width:0.264583px;stroke-linecap:butt;stroke-linejoin:miter;stroke-opacity:1"
           d="m -338.67827,53.933426 c 1.85775,4.758203 5.67969,11.313113 9.58595,11.109662 4.76251,-0.248046 9.65729,-1.554426 2.66237,-1.604036 -4.47146,-0.03171 -8.99583,-7.209895 -10.45104,-9.921874 -1.45521,-2.71198 -4.29948,-6.482292 -4.29948,-6.482292 0,0 1.32292,1.058333 4.49792,1.455208 3.175,0.396875 4.63772,0.639838 5.76936,0.67682 2.14681,0.07016 2.75688,-1.611267 -1.30452,-1.867445 -5.85161,-0.369097 -12.17453,-2.767129 -14.73682,-2.440059 -3.66987,0.468451 -1.71318,0.817584 1.27615,1.381726 3.68738,0.695876 5.14235,2.934087 7.00011,7.69229 z"
           id="path1106"
           inkscape:connector-curvature="0"
           sodipodi:nodetypes="zssscsssssz" />
        <path
           style="fill:#009984;fill-opacity:1;stroke:none;stroke-width:0.264583px;stroke-linecap:butt;stroke-linejoin:miter;stroke-opacity:1"
           d="m -345.87682,54.608584 c 1.75478,1.396078 3.24113,1.78595 0.33068,-1.223698 -2.91042,-3.009625 -5.22551,-4.597138 -7.67291,-4.101044 -2.4474,0.496093 -2.87775,1.393166 -0.19844,1.488281 4.7209,0.16759 5.79936,2.451098 7.54067,3.836461 z"
           id="path1108"
           inkscape:connector-curvature="0"
           sodipodi:nodetypes="sssss" />
        <path
           style="fill:#009984;fill-opacity:1;stroke:none;stroke-width:0.264583px;stroke-linecap:butt;stroke-linejoin:miter;stroke-opacity:1"
           d="m -343.22192,54.766934 c 1.54345,1.68383 3.09297,3.361209 1.49671,-0.187089 -3.43638,-7.63865 -12.97209,-11.531342 -17.37586,-6.26747 -4.15047,4.961113 -4.93446,8.418993 -2.03458,4.817535 2.89987,-3.601455 4.2454,-5.167335 6.50133,-5.612662 5.39877,-1.065733 8.25813,3.808544 11.4124,7.249686 z"
           id="path1110"
           inkscape:connector-curvature="0"
           sodipodi:nodetypes="ssssss" />
        <path
           style="fill:#009984;fill-opacity:1;stroke:none;stroke-width:0.264583px;stroke-linecap:butt;stroke-linejoin:miter;stroke-opacity:1"
           d="m -314.09375,91.253375 c 0.52917,2.083594 -0.92604,3.505729 -1.48828,1.091406 -0.56224,-2.414323 -1.32292,-0.330729 -3.14193,-1.091406 -1.81901,-0.760677 -2.28203,-1.653646 -0.69453,-1.02526 1.5875,0.628385 4.29948,-1.389065 4.82865,-0.231511 0.52916,1.15755 0.34466,0.660509 0.49609,1.256771 z"
           id="path1112"
           inkscape:connector-curvature="0"
           sodipodi:nodetypes="ssssss" />
        <path
           style="fill:#009984;fill-opacity:1;stroke:none;stroke-width:0.264583px;stroke-linecap:butt;stroke-linejoin:miter;stroke-opacity:1"
           d="m -375.31172,60.197907 c 1.9696,-0.283351 5.28679,-1.962207 1.05833,-1.719792 -7.10725,0.407454 -8.23887,2.752798 -1.05833,1.719792 z"
           id="path1114"
           inkscape:connector-curvature="0"
           sodipodi:nodetypes="sss" />
        <path
           id="path1116"
           style="fill:#009984;fill-opacity:1;stroke:none;stroke-width:0.264583px;stroke-linecap:butt;stroke-linejoin:miter;stroke-opacity:1"
           d="m -393.20417,38.898949 c -6.186,0.820584 -6.97063,4.221206 -1.55442,3.902604 5.62239,-0.33073 10.81484,1.389062 4.36562,3.373437 -4.49935,1.384415 -9.37905,3.989528 -3.50572,2.348177 4.75104,-1.327718 5.40368,-2.345486 7.04452,-2.61276 2.7872,-0.454 4.01946,2.139057 3.5903,3.227129 -0.6236,1.581033 -0.83217,2.10749 -1.68635,2.756295 -5.02473,3.816607 -3.00899,3.413494 -1.06823,2.101363 2.09675,-1.417596 3.04019,-3.110352 4.2095,-5.098168 0,0 0.54557,-2.419164 1.73474,-2.75511 2.94342,-0.83153 3.05676,-2.147822 0.59531,-2.116666 -5.33306,0.0675 -6.425,-3.583657 -2.87358,-6.433105 3.43294,-2.754394 -2.57407,-1.353347 -3.41171,-0.707248 -2.01365,1.553208 -4.86828,1.672911 -7.43998,2.014052 z"
           inkscape:connector-curvature="0"
           sodipodi:nodetypes="scssssssssssss" />
        <path
           style="fill:#009984;fill-opacity:1;stroke:none;stroke-width:0.264583px;stroke-linecap:butt;stroke-linejoin:miter;stroke-opacity:1"
           d="m -325.70234,81.298427 c -2.63723,-5.176647 -3.78091,-4.677836 -2.11667,0.463021 1.55325,4.798008 1.5875,5.027083 1.45521,7.342187 -0.13229,2.315104 0.7276,5.225521 1.71979,8.069792 0.99219,2.844273 2.71198,13.526823 2.34818,6.449213 -0.32964,-6.413126 1.2237,-8.499734 -0.42995,-13.7914 -1.65365,-5.291667 -2.64871,-7.889272 -2.97656,-8.532813 z"
           id="path1118"
           inkscape:connector-curvature="0"
           sodipodi:nodetypes="sssssss" />
        <path
           style="fill:#009984;fill-opacity:1;stroke:none;stroke-width:0.264583px;stroke-linecap:butt;stroke-linejoin:miter;stroke-opacity:1"
           d="m -368.79401,51.050408 c -1.25499,5.76533 -0.31276,8.373519 2.47812,3.855832 8.54072,-13.825066 -1.3329,-9.116904 -2.47812,-3.855832 z"
           id="path1120"
           inkscape:connector-curvature="0"
           sodipodi:nodetypes="sss" />
        <path
           style="fill:#009984;fill-opacity:1;stroke:none;stroke-width:0.264583px;stroke-linecap:butt;stroke-linejoin:miter;stroke-opacity:1"
           d="m -344.11059,38.91117 c 5.47467,3.438443 6.36102,4.957849 -1.87088,4.209494 -8.2319,-0.748353 -1.87089,-3.741772 -10.85114,-1.496709 -8.98026,2.245064 -13.2833,1.870888 -4.49013,-1.870886 8.79316,-3.741772 12.37549,-3.879636 17.21215,-0.841899 z"
           id="path1122"
           inkscape:connector-curvature="0"
           sodipodi:nodetypes="sssss" />
        <path
           inkscape:connector-curvature="0"
           style="fill:#009984;fill-opacity:1;stroke:none;stroke-width:0.264583px;stroke-linecap:butt;stroke-linejoin:miter;stroke-opacity:1"
           d="m -373.00385,29.967679 c -0.34266,0.157035 -0.66936,0.248499 -0.99064,0.292489 -0.12662,0.454845 -0.39468,1.308055 -0.71261,1.60972 -0.81235,0.770797 -0.40322,1.066599 0.007,0.785484 h 5.3e-4 c 0.94274,-0.620829 1.78057,-2.012386 1.6955,-2.687693 z"
           id="path1124" />
        <path
           style="fill:#009984;fill-opacity:1;stroke:none;stroke-width:0.264583px;stroke-linecap:butt;stroke-linejoin:miter;stroke-opacity:1"
           d="m -330.54666,54.720161 c 3.19675,3.237652 3.48453,3.414372 5.19171,3.788548 2.06152,0.451841 1.82412,0 -0.18709,-1.075762 -2.0112,-1.075758 -3.60145,-3.086962 -5.28525,-5.191709 -1.6838,-2.104747 -3.18318,-1.029205 0.28063,2.478923 z"
           id="path1126"
           inkscape:connector-curvature="0"
           sodipodi:nodetypes="sssss" />
        <path
           style="fill:#009984;fill-opacity:1;stroke:none;stroke-width:0.264583px;stroke-linecap:butt;stroke-linejoin:miter;stroke-opacity:1"
           d="m -374.98022,40.220791 c 1.87089,2.338608 4.93601,2.824193 2.33861,-0.374179 -5.02282,-6.184982 -3.43823,-1.00034 -2.33861,0.374179 z"
           id="path1128"
           inkscape:connector-curvature="0"
           sodipodi:nodetypes="sss" />
        <path
           inkscape:connector-curvature="0"
           style="fill:#009984;fill-opacity:1;stroke:none;stroke-width:0.264583;stroke-linecap:butt;stroke-linejoin:miter;stroke-miterlimit:4;stroke-dasharray:none;stroke-opacity:1"
           d="m -332.67556,203.22067 c -0.33603,0.38865 -0.90118,0.76144 -2.07223,1.09244 -1.35838,0.38395 -5.04361,1.20716 -10.40143,1.67018 -5.35781,0.46303 -6.28385,-0.92604 -8.73125,0.33073 -2.44739,1.25677 -3.3073,4.03487 -2.24896,4.06797 1.05833,0.0331 1.52136,-1.12449 4.23333,-0.99219 2.71198,0.13229 10.15321,-1.01459 15.1474,-2.3151 3.1367,-0.81681 4.16719,-2.28204 4.16719,-2.28204 0.34114,-0.51171 0.26354,-1.02485 -0.094,-1.57199 z"
           id="path1130" />
      </g>
    </g>
  </g>
</svg>
