<?xml version="1.0" standalone="no"?>
<!DOCTYPE svg PUBLIC "-//W3C//DTD SVG 20010904//EN"
 "http://www.w3.org/TR/2001/REC-SVG-20010904/DTD/svg10.dtd">
<svg version="1.0" xmlns="http://www.w3.org/2000/svg"
 width="1000.000000pt" height="1000.000000pt" viewBox="0 0 1000.000000 1000.000000"
 preserveAspectRatio="xMidYMid meet">
<metadata>
Created by potrace 1.14, written by Peter Selinger 2001-2017
</metadata>
<g transform="translate(0.000000,1000.000000) scale(0.100000,-0.100000)"
fill="#000000" stroke="none">
<path d="M4520 9992 c-97 -15 -232 -67 -310 -122 -14 -9 -88 -50 -165 -90
-331 -173 -382 -236 -333 -412 10 -37 18 -81 18 -98 0 -52 -45 -124 -112 -182
-104 -88 -155 -145 -187 -211 -30 -59 -71 -178 -71 -205 0 -7 -9 -31 -20 -55
-16 -33 -33 -49 -80 -76 -34 -18 -72 -45 -86 -59 -36 -39 -92 -151 -109 -219
-17 -66 -14 -167 7 -210 7 -15 53 -58 102 -95 48 -37 94 -75 101 -85 21 -29
24 -71 30 -331 l4 -243 -34 -100 c-40 -118 -49 -160 -48 -254 0 -85 17 -125
80 -181 40 -36 46 -46 43 -75 -8 -83 -3 -158 13 -213 9 -33 19 -107 22 -165
10 -204 15 -234 42 -281 29 -49 140 -202 211 -290 25 -30 57 -71 72 -90 16
-19 79 -99 142 -177 62 -78 128 -166 146 -195 63 -105 65 -213 7 -468 -31
-139 -62 -238 -86 -273 -57 -86 -153 -173 -265 -240 -67 -40 -93 -71 -87 -102
9 -46 9 -135 2 -205 -5 -41 -11 -99 -14 -128 -22 -204 -13 -252 61 -325 36
-36 145 -107 163 -107 12 0 141 -89 201 -138 30 -26 59 -49 63 -52 4 -4 -15
-109 -43 -233 -27 -125 -50 -228 -50 -230 0 -2 -15 -4 -33 -5 -18 -1 -44 -5
-57 -7 -38 -8 -71 -13 -120 -20 -25 -3 -99 -15 -165 -25 -66 -11 -138 -22
-160 -25 -22 -3 -65 -10 -95 -15 -30 -5 -75 -11 -100 -14 -25 -4 -56 -8 -70
-11 -14 -3 -43 -7 -65 -10 -22 -3 -49 -7 -60 -9 -11 -2 -40 -7 -65 -10 -25 -3
-54 -8 -65 -10 -11 -2 -45 -7 -75 -11 -30 -4 -64 -9 -75 -11 -19 -4 -51 -9
-125 -19 -19 -3 -44 -7 -56 -9 -12 -2 -45 -7 -74 -11 -29 -4 -62 -9 -74 -11
-12 -2 -41 -7 -66 -10 -25 -3 -46 -7 -47 -8 -3 -3 -11 -224 -18 -476 -2 -107
-7 -269 -10 -360 -10 -301 -14 -453 -21 -700 l-6 -245 168 -48 c93 -26 324
-92 514 -148 190 -55 368 -106 395 -114 28 -7 145 -41 260 -75 116 -34 309
-90 430 -125 121 -35 339 -98 485 -141 146 -42 281 -81 301 -86 40 -11 -34
-40 1062 426 99 42 180 76 182 76 2 0 32 13 67 29 35 15 104 45 153 65 50 21
99 42 110 47 11 5 199 85 418 178 219 93 400 170 402 173 8 7 9 1577 2 1584
-4 5 -18 9 -30 11 -12 1 -49 7 -82 13 -33 5 -78 12 -100 15 -22 4 -51 8 -65
10 -47 8 -130 19 -215 30 -199 26 -241 69 -175 177 50 81 45 91 -85 200 -86
71 -141 128 -164 168 -19 32 -22 202 -5 290 6 36 14 79 17 95 11 59 80 300
179 620 12 39 23 75 24 80 1 6 21 71 44 145 23 74 43 140 44 145 12 47 27 95
31 95 2 0 30 -14 62 -30 103 -53 207 -53 267 1 59 51 78 115 91 291 6 91 32
137 130 233 94 91 109 114 107 168 -2 39 7 64 31 89 138 145 171 223 182 441
3 49 7 92 10 96 2 4 7 22 10 38 3 17 21 73 41 125 19 51 38 114 41 140 5 45 4
47 -46 95 -28 27 -51 54 -51 61 0 7 17 31 38 55 75 82 87 145 87 447 0 246
-14 312 -100 475 -64 121 -59 153 40 280 89 113 103 164 70 255 -27 77 -29
107 -6 119 11 6 35 11 53 11 69 0 86 40 63 149 -17 81 -60 155 -135 232 -83
85 -190 154 -413 267 -254 129 -304 176 -278 261 22 77 16 96 -43 141 -66 48
-97 87 -130 163 -15 34 -47 78 -79 109 -110 109 -408 299 -578 368 l-84 35
-156 -3 c-171 -2 -143 -9 -291 72 -29 16 -91 39 -138 51 -47 13 -116 35 -155
50 -102 40 -217 41 -297 2 -80 -38 -107 -39 -212 -5 -86 28 -171 39 -226 30z"/>
</g>
</svg>
